<svg xmlns="http://www.w3.org/2000/svg" viewBox="0 0 1440 320" preserveAspectRatio="none">
  <path fill="rgba(76, 184, 196, 0.15)" d="M0,160L48,170.7C96,181,192,203,288,197.3C384,192,480,160,576,154.7C672,149,768,171,864,186.7C960,203,1056,213,1152,197.3C1248,181,1344,139,1392,117.3L1440,96L1440,320L1392,320C1344,320,1248,320,1152,320C1056,320,960,320,864,320C768,320,672,320,576,320C480,320,384,320,288,320C192,320,96,320,48,320L0,320Z"></path>
  <path fill="rgba(125, 211, 224, 0.1)" d="M0,224L48,213.3C96,203,192,181,288,186.7C384,192,480,224,576,234.7C672,245,768,235,864,213.3C960,192,1056,160,1152,160C1248,160,1344,192,1392,208L1440,224L1440,320L1392,320C1344,320,1248,320,1152,320C1056,320,960,320,864,320C768,320,672,320,576,320C480,320,384,320,288,320C192,320,96,320,48,320L0,320Z"></path>
</svg>
